<mxfile host="app.diagrams.net" modified="2024-02-28T02:12:19.433Z" agent="Mozilla/5.0 (Windows NT 10.0; Win64; x64) AppleWebKit/537.36 (KHTML, like Gecko) Chrome/121.0.0.0 Safari/537.36" etag="HRjS-OHADAU14DRvwVhU" version="23.1.5" type="device" pages="2">
  <diagram name="Casos de Uso" id="iNeeuXbMr_8V0bboCuFO">
    <mxGraphModel dx="965" dy="716" grid="1" gridSize="10" guides="1" tooltips="1" connect="1" arrows="1" fold="1" page="1" pageScale="1" pageWidth="827" pageHeight="1169" math="0" shadow="0">
      <root>
        <mxCell id="0" />
        <mxCell id="1" parent="0" />
        <mxCell id="fu57weQBIEry1WZQB3Y1-12" value="AdministradorBiblioteca" style="shape=umlActor;verticalLabelPosition=bottom;verticalAlign=top;html=1;outlineConnect=0;" vertex="1" parent="1">
          <mxGeometry x="170" y="190" width="30" height="60" as="geometry" />
        </mxCell>
        <mxCell id="fu57weQBIEry1WZQB3Y1-13" value="UsuarioBiblioteca&lt;div&gt;&lt;br/&gt;&lt;/div&gt;" style="shape=umlActor;verticalLabelPosition=bottom;verticalAlign=top;html=1;outlineConnect=0;" vertex="1" parent="1">
          <mxGeometry x="170" y="360" width="30" height="60" as="geometry" />
        </mxCell>
        <mxCell id="fu57weQBIEry1WZQB3Y1-22" value="" style="swimlane;startSize=0;" vertex="1" parent="1">
          <mxGeometry x="400" y="120" width="170" height="520" as="geometry">
            <mxRectangle x="380" y="90" width="50" height="40" as="alternateBounds" />
          </mxGeometry>
        </mxCell>
        <mxCell id="fu57weQBIEry1WZQB3Y1-23" value="Biblioteca" style="text;html=1;align=center;verticalAlign=middle;resizable=0;points=[];autosize=1;strokeColor=none;fillColor=none;" vertex="1" parent="fu57weQBIEry1WZQB3Y1-22">
          <mxGeometry x="43" width="80" height="30" as="geometry" />
        </mxCell>
        <mxCell id="fu57weQBIEry1WZQB3Y1-25" value="&lt;font style=&quot;font-size: 10px;&quot;&gt;prestarLibros&lt;br&gt;&lt;/font&gt;" style="ellipse;whiteSpace=wrap;html=1;" vertex="1" parent="fu57weQBIEry1WZQB3Y1-22">
          <mxGeometry x="23" y="330" width="120" height="20" as="geometry" />
        </mxCell>
        <mxCell id="fu57weQBIEry1WZQB3Y1-26" value="&lt;font style=&quot;font-size: 10px;&quot;&gt;devolverLibros&lt;br&gt;&lt;/font&gt;" style="ellipse;whiteSpace=wrap;html=1;" vertex="1" parent="fu57weQBIEry1WZQB3Y1-22">
          <mxGeometry x="23" y="435" width="120" height="20" as="geometry" />
        </mxCell>
        <mxCell id="fu57weQBIEry1WZQB3Y1-27" value="&lt;font style=&quot;font-size: 10px;&quot;&gt;agregarUsuarios&lt;br&gt;&lt;/font&gt;" style="ellipse;whiteSpace=wrap;html=1;" vertex="1" parent="fu57weQBIEry1WZQB3Y1-22">
          <mxGeometry x="23" y="80" width="120" height="20" as="geometry" />
        </mxCell>
        <mxCell id="fu57weQBIEry1WZQB3Y1-29" value="&lt;font style=&quot;font-size: 10px;&quot;&gt;agregarLibros&lt;br&gt;&lt;/font&gt;" style="ellipse;whiteSpace=wrap;html=1;" vertex="1" parent="fu57weQBIEry1WZQB3Y1-22">
          <mxGeometry x="23" y="120" width="120" height="20" as="geometry" />
        </mxCell>
        <mxCell id="fu57weQBIEry1WZQB3Y1-37" value="&lt;font style=&quot;font-size: 10px;&quot;&gt;crearUsuario&lt;br&gt;&lt;/font&gt;" style="ellipse;whiteSpace=wrap;html=1;" vertex="1" parent="fu57weQBIEry1WZQB3Y1-22">
          <mxGeometry x="23" y="380" width="120" height="20" as="geometry" />
        </mxCell>
        <mxCell id="fu57weQBIEry1WZQB3Y1-38" style="edgeStyle=orthogonalEdgeStyle;rounded=0;orthogonalLoop=1;jettySize=auto;html=1;exitX=0.5;exitY=1;exitDx=0;exitDy=0;" edge="1" parent="fu57weQBIEry1WZQB3Y1-22" source="fu57weQBIEry1WZQB3Y1-29" target="fu57weQBIEry1WZQB3Y1-29">
          <mxGeometry relative="1" as="geometry" />
        </mxCell>
        <mxCell id="fu57weQBIEry1WZQB3Y1-48" value="&lt;font style=&quot;font-size: 10px;&quot;&gt;buscarLibros&lt;br&gt;&lt;/font&gt;" style="ellipse;whiteSpace=wrap;html=1;" vertex="1" parent="fu57weQBIEry1WZQB3Y1-22">
          <mxGeometry x="23" y="250" width="120" height="20" as="geometry" />
        </mxCell>
        <mxCell id="fu57weQBIEry1WZQB3Y1-61" value="&lt;font style=&quot;font-size: 10px;&quot;&gt;eliminarLibros&lt;br&gt;&lt;/font&gt;" style="ellipse;whiteSpace=wrap;html=1;" vertex="1" parent="fu57weQBIEry1WZQB3Y1-22">
          <mxGeometry x="23" y="160" width="120" height="20" as="geometry" />
        </mxCell>
        <mxCell id="fu57weQBIEry1WZQB3Y1-69" value="&lt;font style=&quot;font-size: 10px;&quot;&gt;eliminarUsuarios&lt;br&gt;&lt;/font&gt;" style="ellipse;whiteSpace=wrap;html=1;" vertex="1" parent="fu57weQBIEry1WZQB3Y1-22">
          <mxGeometry x="23" y="50" width="120" height="20" as="geometry" />
        </mxCell>
        <mxCell id="fu57weQBIEry1WZQB3Y1-71" value="&lt;font style=&quot;font-size: 10px;&quot;&gt;modificarLibros&lt;br&gt;&lt;/font&gt;" style="ellipse;whiteSpace=wrap;html=1;" vertex="1" parent="fu57weQBIEry1WZQB3Y1-22">
          <mxGeometry x="23" y="210" width="120" height="20" as="geometry" />
        </mxCell>
        <mxCell id="fu57weQBIEry1WZQB3Y1-73" value="&lt;font style=&quot;font-size: 10px;&quot;&gt;modificarUsuario&lt;br&gt;&lt;/font&gt;" style="ellipse;whiteSpace=wrap;html=1;" vertex="1" parent="fu57weQBIEry1WZQB3Y1-22">
          <mxGeometry x="23" y="280" width="120" height="20" as="geometry" />
        </mxCell>
        <mxCell id="fu57weQBIEry1WZQB3Y1-60" value="" style="endArrow=none;html=1;rounded=0;exitX=0.5;exitY=0.5;exitDx=0;exitDy=0;exitPerimeter=0;entryX=0;entryY=0.5;entryDx=0;entryDy=0;" edge="1" parent="1" source="fu57weQBIEry1WZQB3Y1-12" target="fu57weQBIEry1WZQB3Y1-27">
          <mxGeometry width="50" height="50" relative="1" as="geometry">
            <mxPoint x="195" y="230" as="sourcePoint" />
            <mxPoint x="433" y="210" as="targetPoint" />
          </mxGeometry>
        </mxCell>
        <mxCell id="fu57weQBIEry1WZQB3Y1-62" value="" style="endArrow=none;html=1;rounded=0;exitX=0.5;exitY=0.5;exitDx=0;exitDy=0;exitPerimeter=0;entryX=0;entryY=0.5;entryDx=0;entryDy=0;" edge="1" parent="1" source="fu57weQBIEry1WZQB3Y1-12" target="fu57weQBIEry1WZQB3Y1-61">
          <mxGeometry width="50" height="50" relative="1" as="geometry">
            <mxPoint x="185" y="310" as="sourcePoint" />
            <mxPoint x="423" y="330" as="targetPoint" />
          </mxGeometry>
        </mxCell>
        <mxCell id="fu57weQBIEry1WZQB3Y1-63" value="" style="endArrow=none;html=1;rounded=0;exitX=0.5;exitY=0.5;exitDx=0;exitDy=0;exitPerimeter=0;entryX=0;entryY=0.5;entryDx=0;entryDy=0;" edge="1" parent="1" source="fu57weQBIEry1WZQB3Y1-12" target="fu57weQBIEry1WZQB3Y1-29">
          <mxGeometry width="50" height="50" relative="1" as="geometry">
            <mxPoint x="195" y="240" as="sourcePoint" />
            <mxPoint x="433" y="260" as="targetPoint" />
          </mxGeometry>
        </mxCell>
        <mxCell id="fu57weQBIEry1WZQB3Y1-64" value="" style="endArrow=none;html=1;rounded=0;exitX=0.5;exitY=0.5;exitDx=0;exitDy=0;exitPerimeter=0;entryX=0;entryY=0.5;entryDx=0;entryDy=0;" edge="1" parent="1" source="fu57weQBIEry1WZQB3Y1-12" target="fu57weQBIEry1WZQB3Y1-48">
          <mxGeometry width="50" height="50" relative="1" as="geometry">
            <mxPoint x="162" y="330" as="sourcePoint" />
            <mxPoint x="400" y="350" as="targetPoint" />
          </mxGeometry>
        </mxCell>
        <mxCell id="fu57weQBIEry1WZQB3Y1-65" value="" style="endArrow=none;html=1;rounded=0;exitX=0.5;exitY=0.5;exitDx=0;exitDy=0;exitPerimeter=0;entryX=0;entryY=0.5;entryDx=0;entryDy=0;" edge="1" parent="1" source="fu57weQBIEry1WZQB3Y1-13" target="fu57weQBIEry1WZQB3Y1-25">
          <mxGeometry width="50" height="50" relative="1" as="geometry">
            <mxPoint x="220" y="410" as="sourcePoint" />
            <mxPoint x="458" y="430" as="targetPoint" />
          </mxGeometry>
        </mxCell>
        <mxCell id="fu57weQBIEry1WZQB3Y1-66" value="" style="endArrow=none;html=1;rounded=0;exitX=0.5;exitY=0.5;exitDx=0;exitDy=0;exitPerimeter=0;entryX=0;entryY=0.5;entryDx=0;entryDy=0;" edge="1" parent="1" source="fu57weQBIEry1WZQB3Y1-13" target="fu57weQBIEry1WZQB3Y1-48">
          <mxGeometry width="50" height="50" relative="1" as="geometry">
            <mxPoint x="220" y="360" as="sourcePoint" />
            <mxPoint x="420" y="360" as="targetPoint" />
          </mxGeometry>
        </mxCell>
        <mxCell id="fu57weQBIEry1WZQB3Y1-67" value="" style="endArrow=none;html=1;rounded=0;exitX=0.5;exitY=0.5;exitDx=0;exitDy=0;exitPerimeter=0;entryX=0;entryY=0.5;entryDx=0;entryDy=0;" edge="1" parent="1" source="fu57weQBIEry1WZQB3Y1-13" target="fu57weQBIEry1WZQB3Y1-37">
          <mxGeometry width="50" height="50" relative="1" as="geometry">
            <mxPoint x="205" y="410" as="sourcePoint" />
            <mxPoint x="443" y="520" as="targetPoint" />
          </mxGeometry>
        </mxCell>
        <mxCell id="fu57weQBIEry1WZQB3Y1-68" value="" style="endArrow=none;html=1;rounded=0;exitX=0.5;exitY=0.5;exitDx=0;exitDy=0;exitPerimeter=0;entryX=0;entryY=0.5;entryDx=0;entryDy=0;" edge="1" parent="1" source="fu57weQBIEry1WZQB3Y1-13" target="fu57weQBIEry1WZQB3Y1-26">
          <mxGeometry width="50" height="50" relative="1" as="geometry">
            <mxPoint x="215" y="420" as="sourcePoint" />
            <mxPoint x="453" y="530" as="targetPoint" />
          </mxGeometry>
        </mxCell>
        <mxCell id="fu57weQBIEry1WZQB3Y1-70" value="" style="endArrow=none;html=1;rounded=0;exitX=0.5;exitY=0.5;exitDx=0;exitDy=0;exitPerimeter=0;entryX=0;entryY=0.5;entryDx=0;entryDy=0;" edge="1" parent="1" source="fu57weQBIEry1WZQB3Y1-12" target="fu57weQBIEry1WZQB3Y1-69">
          <mxGeometry width="50" height="50" relative="1" as="geometry">
            <mxPoint x="195" y="190" as="sourcePoint" />
            <mxPoint x="433" y="190" as="targetPoint" />
          </mxGeometry>
        </mxCell>
        <mxCell id="fu57weQBIEry1WZQB3Y1-72" value="" style="endArrow=none;html=1;rounded=0;exitX=0.5;exitY=0.5;exitDx=0;exitDy=0;exitPerimeter=0;entryX=0;entryY=0.5;entryDx=0;entryDy=0;" edge="1" parent="1" source="fu57weQBIEry1WZQB3Y1-12" target="fu57weQBIEry1WZQB3Y1-71">
          <mxGeometry width="50" height="50" relative="1" as="geometry">
            <mxPoint x="200" y="220" as="sourcePoint" />
            <mxPoint x="438" y="380" as="targetPoint" />
          </mxGeometry>
        </mxCell>
        <mxCell id="fu57weQBIEry1WZQB3Y1-74" value="" style="endArrow=none;html=1;rounded=0;exitX=0.5;exitY=0.5;exitDx=0;exitDy=0;exitPerimeter=0;entryX=0;entryY=0.5;entryDx=0;entryDy=0;" edge="1" parent="1" source="fu57weQBIEry1WZQB3Y1-13" target="fu57weQBIEry1WZQB3Y1-73">
          <mxGeometry width="50" height="50" relative="1" as="geometry">
            <mxPoint x="195" y="400" as="sourcePoint" />
            <mxPoint x="433" y="390" as="targetPoint" />
          </mxGeometry>
        </mxCell>
        <mxCell id="fu57weQBIEry1WZQB3Y1-75" value="" style="endArrow=none;html=1;rounded=0;exitX=0.5;exitY=0.5;exitDx=0;exitDy=0;exitPerimeter=0;entryX=0;entryY=0.5;entryDx=0;entryDy=0;" edge="1" parent="1" source="fu57weQBIEry1WZQB3Y1-12" target="fu57weQBIEry1WZQB3Y1-73">
          <mxGeometry width="50" height="50" relative="1" as="geometry">
            <mxPoint x="195" y="230" as="sourcePoint" />
            <mxPoint x="433" y="390" as="targetPoint" />
          </mxGeometry>
        </mxCell>
      </root>
    </mxGraphModel>
  </diagram>
  <diagram id="6N6vYqtqkbEQjREEu1Bf" name="Diagrama de clases">
    <mxGraphModel dx="1792" dy="716" grid="1" gridSize="10" guides="1" tooltips="1" connect="1" arrows="1" fold="1" page="1" pageScale="1" pageWidth="827" pageHeight="1169" math="0" shadow="0">
      <root>
        <mxCell id="0" />
        <mxCell id="1" parent="0" />
        <mxCell id="lxLX9aIqkDxmS6mn9qYT-7" value="" style="shape=image;verticalLabelPosition=bottom;labelBackgroundColor=default;verticalAlign=top;aspect=fixed;imageAspect=0;image=data:image/gif,R0lGODdhVwLbAPcAAAAAAP///wAAAAAAAAAAAAAAAAAAAAAAAAAAAAAAAAAAAAAAAAAAAAAAAAAAAAAAAAAAAAAAAAAAAAAAAAAAAAAAAAAAAAAAAAAAAAAAAAAAAAAAAAAAAAAAAAAAAAAAAAAAAAAAAAAAAAAAAAAAAAAAAAAAAAAAAAAAAAAAAAAAAAAAAAAAAAAAAAAAAAAAAAAAAAAAAAAAAAAAAAAAAAAAAAAAAAAAAAAAAAAAAAAAAAAAAAAAAAAAAAAAAAAAAAAAAAAAAAAAAAAAAAAAAAAAAAAAAAAAAAAAAAAAAAAAAAAAAAAAAAAAAAAAAAAAAAAAAAAAAAAAAAAAAAAAAAAAAAAAAAAAAAAAAAAAAAAAAAAAAAAAAAAAAAAAAAAAAAAAAAAAAAAAAAAAAAAAAAAAAAAAAAAAAAAAAAAAAAAAAAAAAAAAAAAAAAAAAAAAAAAAAAAAAAAAAAAAAAAAAAAAAAAAAAAAAAAAAAAAAAAAAAAAAAAAAAAAAAAAAAAAAAAAAAAAAAAAAAAAAAAAAAAAAAAAAAAAAAAAAAAAAAAAAAAAAAAAAAAAAAAAAAAAAAAAAAAAAAAAAAAAAAAAAAAAAAAAAAAAAAAAAAAAAAAAAAAAAAAAAAAAAAAAAAAAAAAAAAAAAAAAAAAAAAAAAAAAAAAAAAAAAAAAAAAAAAAAAAAAAAAAAAAAAAAAAAAAAAAAAAAAAAAAAAAAAAAAAAAAAAAAAAAAAAAAAAAAAAAAAAAAAAAAAAAAAAAAAAAAAAAAAAAAAAAAAAAAAAAAAAAAAAAAAAAAAAAAAAAAAAAAAAAAAAAAAAAAAAAAAAAAAAAAAAAAAAAAAAAAAAAAAAAAAAAAAAAAAAAAAAAAAAAAAAAAAAAAAAAAAAAAAAAAAAAAAAAAAAAAAAAAAAAAAAAAAAAAAAAAAAAAAAAAAAAAAAAAAAAAAAAAAAAAAAAAAAAAAAAAAAAAAAAAAAAAAAAAAAAAAAAAAAAAAAAAAAAAAAAAAAAAAAAAAAAAAAAAACH5BAAAAAAALAAAAABXAtsAQAj/AAMIHEiwoMGDCBMqXMiwocOHECNKnEixosWLGDNq3Mixo8ePIEOKHEmypMmTKFOqXMmypcuXMGPKnEmzps2bOHPq3MnzIYCfQIMKHUq0qNGjSJMqXXpyqdOnUKNKFYpyqtWrWKU2zcq1q1cAPQWCDVu1KVmzaM+WHLtWbduwbN2KjDuSrlyPduferZt2L16yef1qDPyRsGCLhv8eVvx28cbENCE7jih58OTHZS9bNllZ88LOMEF7Tiga8eiLpU2fVt14tcTULGG7DiD79eyJtW3f1t16d8PcVb8KHw51K/HjyIcGT848ufHm0L/6rtgZ+HSIxa+vtGtdO3WE3b33o1YYXjzpp+ZJok+fsrxMsGzjD4w7Nq/8+bTxi93PPz/t+5S5dB+AP80Hn3791UfQgQk2yF+B/VHkXmb72begfwsSqB99GPL23oYGaVgQhP4NGKKIJV5YHXuHTciihy9uF+OMNGJXo4w3tpejjjvC1WNfP+oVpHpD7uRikRciGdKRSjY5YnRQevVclFRqNWWVWDp1ZZZcGgXYjkyGmGOYYo4JZIzFZHKUplxrRjhjm26+eeaLcGJU55ecmTknnXuydydrNcL5J091Dkpon+kZihuYiJpXKKN53qgojHJGGiiFl1pK46ROdurpp6CGKuqopJZq6qmopqrqqqy26uqrsMYq66y01mrrrWhCOh6fjTraq3ec2qjnriw+OiyRkuKZrKaVMtssspn2FOxNgh4LbbTXPmukrtnm+iuw3143rUPj1lTtss56S6yfymLLF7rrsptusU1aKKuXtAKYL4K4kobaqFypali5vhHXvJt1dBlsk3tE4aqwdg8jFlSHKTqY5IYT25twiqkpyt2IFebHIMgX46dgmRsrmFvEv6l4kIkkM2jvf0BJaK7LJOcM4skhx1xxzlT1Gy6rLBcs9NEZFX3w0Urf1nSQT7sW9WpTn1a1tbZe7ZnWSIfG7bvugh32kljnxHW3ZMOLNq/x+upj2SCdLeS89NKdaLubDm203nu3Ld7Ucs+9trx2313433hrK7jiizMeN9zUft04234jfji4XWeu+eacd+7556CHLvropJdu+umop6766qy37vrrsMfdLvvstNe+V+BpVw4xpnlfvvvbak9et++/6y5u4uoObjjxxzPf96GQM9a788+L7Xjk0XeEe2G8Xy+99zdnr6b445O/2dg4bc899U53n7z17+uk/vfCE2588/dXL3+X/CO1Zf8AXA4AB1gzzhDwgMijHPwUuEAG5m560AveA8GnPclNMH5ms+DjJHhBDG4Qfdjj4PpAOEISVlCEC9NgCSlYPhSe0ITDmp9agpY1iuWLRKNLjAzTl5R76SxWPNvhZTp2Kqu0KjBClNYPu0ZEUxlRYAxJou1aQhgpLuwoNZz/IqxGljUcZlGLMuLZkwpIMwhV8WdJShkafULFMu1MZBjSV4k4ZMM1HkiMi7qLcmgYtD5WbGZwtFlkVDSxOBqogDKLEHwKmcg6cmhFk9kYzUpWn0KKhUSSJCN9MFkyNgoIh2T8Yx0vuUkzZkhfmuwkpdq1yFSajJGU5CTFmjgTS/rxRIhMoyZhyS9XSvIzrbNiAmclTOCprphKFBoyI3hMpjkTjK9a5raUCc1oPrNf0qxmG6nJTWwG85oOA2fqspnBboazU+QUVv6Wxjd2rrN9xoRgA+2nvOXV03LJdGEL5TlPetbPntPUJ2YEOlCCJs18MUmnJ985G2MZ1E4I9VpELv/1UIhOFFAs/NBFv1NRinaUozCspQrp58AOlnSFHqTWARFowJUG8H8uxRJMYxp0pWH606Q3xWlOUXrSFG5UkCEtaFAP+tHYjPSF/PwnQJWKT2Ym9YNPhWpUSTo8p2aUqEPFalY9OlVtevWrYA2rWMdK1rKa9axoTata18rWtrr1rXCNq1znSte62vWueM2rXvfK17769a+ADaxgB0vYwhr2sIjVTaxiF8vYxp5VoeRqZ0Pd11OkXlWiRc3jVrna1X1e9iWQbRn7JitZ0jJUajZdqk7dNlrT3hNz+dwsSDvr2c9iNKU+zewqq/pa2PYWf4Siaf9mKlzoCLC4Mm0pcquUWtb+djoOlS1QaatR3QbIutfF7kKpm9Cj1raylrXtbMVr1J9qlrtaRS9ncRs+7UbWve+FbxTNq5LQzre1VKMsb5nq24BK97zkna56bwtekdI3uwMmcIHPl+DyyheYD4ZwhP01YakGeLc75emC08veQR5YnQ0W8IUR2Dxi/WY4vBvmcIeFWuLSoha/VjOxai2cYtB6l8UrxnGOVbzfclb4ZR8GcYgxPOMQ/pfIzn0udF0c43i2OL5DRnKS+Vs8q+7YokeWclP7OWUfZ1nIV8byl7f75NO+2MxNhnGalexOK9dYwSdG8ZvHG+Zc2TehXqzVnd+zZz0uMZrKqWGfBRQn0J1xi1gkJr8UjUfPSWbQS2LKFv/sqiAamsSkshLRgOxDTm9ONpC201VWdeh9hQ7UpcIKFMnj2BliGmBRIbVoO026PD/piJKmdatb5GlEN+yL5//UtUdDTWHtWRLYt5JiwkBpy2OH0k2uJGUvAVxfZtPxlXkOJS+lrUhZFhrMrCxjfBi57Q5F+9tQxjMmyW1tU2Js3bnspbfRbTQ8irHRv2ykz1zW6FnX140PGrchoW3Dfts7kCu7Hc50xsWeGXzhWsZUwwdecFGaTEwnA+TEi+0Y+Yw746r8eIM0BjKVUftMmYRjK6/d7QdxWo2BpHO4SR4nkzsSQbAx2CNxyXKX37viCPe0HKs3MhTN7OAwG7jAI/5BS7s85kBTJMWd/jNbg9uYG086zkV0cKZbCt+9TpDTP3ZJnD990eD5pjmTveutiRPZcD8dsR0c7LqP8+16brtDZuaOI2+uHXV8//ff9e6XwPPI74hv5uBNTfjFGF7Gk1586R7P5Ezj3XSUVzPAGt/xyyta8rX2vLA572fQA1H0OUR95OJJX3jVW9P0oss8mi0P+yC7XfN7h/yWqQxc/0b56nH+7pxFPPy+jznddYZz8BlcZja3mcu7533vpa8/L/+ezMmXefG9Xv303Zj52Sf+9l/dYx4uN7lrOT9ziav+47C//cJpbvRpXH7615+qy++u7f3d/Pv+GOD9R33dp2H5x2P3J2cFaGP753/Xh33hx33PJz/fZ4BFRoAJqHxd5n0LKGENiHwPSH4XuE3/R2khqH0HKHwlaHwdyIAByGob6ILHN3ujcS4xyH8tmHYjiIIpCIHwhHu554ORJH/9JYA9KIO3Z4RDoCSEVQZ9Q0iERciESyiBL8hxN4iDOYh246d7TWh/FYh/OwiCXehhV0hvGciFYahjJ2hgYzhKXwiGZwh+WVh5MyiHPwiEQWiHjqeE07da82eGZeiFf9heNciBVRh2hUiCb6h/axh40bWChPiBxwV/zfF+ktgVkViJyEGJmKhqrNeJnviJoBiKojiKpFiKpniKqJiKqriKrNiKrviKsDhFAQEAOw==;" vertex="1" parent="1">
          <mxGeometry x="-10" y="930" width="437.63" height="160" as="geometry" />
        </mxCell>
        <mxCell id="lxLX9aIqkDxmS6mn9qYT-8" value="Biblioteca" style="swimlane;fontStyle=1;align=center;verticalAlign=top;childLayout=stackLayout;horizontal=1;startSize=26;horizontalStack=0;resizeParent=1;resizeParentMax=0;resizeLast=0;collapsible=1;marginBottom=0;whiteSpace=wrap;html=1;" vertex="1" collapsed="1" parent="1">
          <mxGeometry x="364" y="270" width="100" height="30" as="geometry">
            <mxRectangle x="300" y="30" width="160" height="86" as="alternateBounds" />
          </mxGeometry>
        </mxCell>
        <mxCell id="lxLX9aIqkDxmS6mn9qYT-9" value="-&amp;nbsp;" style="text;strokeColor=none;fillColor=none;align=left;verticalAlign=top;spacingLeft=4;spacingRight=4;overflow=hidden;rotatable=0;points=[[0,0.5],[1,0.5]];portConstraint=eastwest;whiteSpace=wrap;html=1;" vertex="1" parent="lxLX9aIqkDxmS6mn9qYT-8">
          <mxGeometry y="26" width="160" height="26" as="geometry" />
        </mxCell>
        <mxCell id="lxLX9aIqkDxmS6mn9qYT-10" value="" style="line;strokeWidth=1;fillColor=none;align=left;verticalAlign=middle;spacingTop=-1;spacingLeft=3;spacingRight=3;rotatable=0;labelPosition=right;points=[];portConstraint=eastwest;strokeColor=inherit;" vertex="1" parent="lxLX9aIqkDxmS6mn9qYT-8">
          <mxGeometry y="52" width="160" height="8" as="geometry" />
        </mxCell>
        <mxCell id="lxLX9aIqkDxmS6mn9qYT-11" value="+" style="text;strokeColor=none;fillColor=none;align=left;verticalAlign=top;spacingLeft=4;spacingRight=4;overflow=hidden;rotatable=0;points=[[0,0.5],[1,0.5]];portConstraint=eastwest;whiteSpace=wrap;html=1;" vertex="1" parent="lxLX9aIqkDxmS6mn9qYT-8">
          <mxGeometry y="60" width="160" height="26" as="geometry" />
        </mxCell>
        <mxCell id="lxLX9aIqkDxmS6mn9qYT-12" value="AdministradorBiblioteca" style="swimlane;fontStyle=1;align=center;verticalAlign=top;childLayout=stackLayout;horizontal=1;startSize=26;horizontalStack=0;resizeParent=1;resizeParentMax=0;resizeLast=0;collapsible=1;marginBottom=0;whiteSpace=wrap;html=1;" vertex="1" collapsed="1" parent="1">
          <mxGeometry x="40" y="160" width="180" height="30" as="geometry">
            <mxRectangle x="20" y="270" width="160" height="124" as="alternateBounds" />
          </mxGeometry>
        </mxCell>
        <mxCell id="lxLX9aIqkDxmS6mn9qYT-13" value="- nombre:String&lt;div&gt;- apellido:String&lt;br&gt;- numeroDeTelefono:int&lt;br&gt;-&lt;/div&gt;" style="text;strokeColor=none;fillColor=none;align=left;verticalAlign=top;spacingLeft=4;spacingRight=4;overflow=hidden;rotatable=0;points=[[0,0.5],[1,0.5]];portConstraint=eastwest;whiteSpace=wrap;html=1;" vertex="1" parent="lxLX9aIqkDxmS6mn9qYT-12">
          <mxGeometry y="26" width="160" height="64" as="geometry" />
        </mxCell>
        <mxCell id="lxLX9aIqkDxmS6mn9qYT-14" value="" style="line;strokeWidth=1;fillColor=none;align=left;verticalAlign=middle;spacingTop=-1;spacingLeft=3;spacingRight=3;rotatable=0;labelPosition=right;points=[];portConstraint=eastwest;strokeColor=inherit;" vertex="1" parent="lxLX9aIqkDxmS6mn9qYT-12">
          <mxGeometry y="90" width="160" height="8" as="geometry" />
        </mxCell>
        <mxCell id="lxLX9aIqkDxmS6mn9qYT-15" value="+ method(type): type" style="text;strokeColor=none;fillColor=none;align=left;verticalAlign=top;spacingLeft=4;spacingRight=4;overflow=hidden;rotatable=0;points=[[0,0.5],[1,0.5]];portConstraint=eastwest;whiteSpace=wrap;html=1;" vertex="1" parent="lxLX9aIqkDxmS6mn9qYT-12">
          <mxGeometry y="98" width="160" height="26" as="geometry" />
        </mxCell>
        <mxCell id="56RZsFW8a9L61xyw1J4C-1" value="UsuarioBiblioteca&lt;span style=&quot;white-space: pre;&quot;&gt;&#x9;&lt;/span&gt;&lt;span style=&quot;white-space: pre;&quot;&gt;&#x9;&lt;/span&gt;" style="swimlane;fontStyle=1;align=center;verticalAlign=top;childLayout=stackLayout;horizontal=1;startSize=26;horizontalStack=0;resizeParent=1;resizeParentMax=0;resizeLast=0;collapsible=1;marginBottom=0;whiteSpace=wrap;html=1;" vertex="1" collapsed="1" parent="1">
          <mxGeometry x="329" y="490" width="170" height="30" as="geometry">
            <mxRectangle x="10" y="60" width="160" height="134" as="alternateBounds" />
          </mxGeometry>
        </mxCell>
        <mxCell id="56RZsFW8a9L61xyw1J4C-2" value="-" style="text;strokeColor=none;fillColor=none;align=left;verticalAlign=top;spacingLeft=4;spacingRight=4;overflow=hidden;rotatable=0;points=[[0,0.5],[1,0.5]];portConstraint=eastwest;whiteSpace=wrap;html=1;" vertex="1" parent="56RZsFW8a9L61xyw1J4C-1">
          <mxGeometry y="26" width="160" height="74" as="geometry" />
        </mxCell>
        <mxCell id="56RZsFW8a9L61xyw1J4C-3" value="" style="line;strokeWidth=1;fillColor=none;align=left;verticalAlign=middle;spacingTop=-1;spacingLeft=3;spacingRight=3;rotatable=0;labelPosition=right;points=[];portConstraint=eastwest;strokeColor=inherit;" vertex="1" parent="56RZsFW8a9L61xyw1J4C-1">
          <mxGeometry y="100" width="160" height="8" as="geometry" />
        </mxCell>
        <mxCell id="56RZsFW8a9L61xyw1J4C-4" value="+ method(type): type" style="text;strokeColor=none;fillColor=none;align=left;verticalAlign=top;spacingLeft=4;spacingRight=4;overflow=hidden;rotatable=0;points=[[0,0.5],[1,0.5]];portConstraint=eastwest;whiteSpace=wrap;html=1;" vertex="1" parent="56RZsFW8a9L61xyw1J4C-1">
          <mxGeometry y="108" width="160" height="26" as="geometry" />
        </mxCell>
        <mxCell id="sTUjuzvk16nlmPwMc_UP-1" value="InterfazUsuario" style="swimlane;fontStyle=1;align=center;verticalAlign=top;childLayout=stackLayout;horizontal=1;startSize=26;horizontalStack=0;resizeParent=1;resizeParentMax=0;resizeLast=0;collapsible=1;marginBottom=0;whiteSpace=wrap;html=1;" vertex="1" collapsed="1" parent="1">
          <mxGeometry x="650" y="540" width="130" height="30" as="geometry">
            <mxRectangle x="570" y="60" width="160" height="134" as="alternateBounds" />
          </mxGeometry>
        </mxCell>
        <mxCell id="sTUjuzvk16nlmPwMc_UP-2" value="&amp;nbsp;+ usuarioId:String&lt;br&gt;+ contraseña:Sring" style="text;strokeColor=none;fillColor=none;align=left;verticalAlign=top;spacingLeft=4;spacingRight=4;overflow=hidden;rotatable=0;points=[[0,0.5],[1,0.5]];portConstraint=eastwest;whiteSpace=wrap;html=1;" vertex="1" parent="sTUjuzvk16nlmPwMc_UP-1">
          <mxGeometry y="26" width="160" height="74" as="geometry" />
        </mxCell>
        <mxCell id="sTUjuzvk16nlmPwMc_UP-3" value="" style="line;strokeWidth=1;fillColor=none;align=left;verticalAlign=middle;spacingTop=-1;spacingLeft=3;spacingRight=3;rotatable=0;labelPosition=right;points=[];portConstraint=eastwest;strokeColor=inherit;" vertex="1" parent="sTUjuzvk16nlmPwMc_UP-1">
          <mxGeometry y="100" width="160" height="8" as="geometry" />
        </mxCell>
        <mxCell id="sTUjuzvk16nlmPwMc_UP-4" value="+ method(type): type" style="text;strokeColor=none;fillColor=none;align=left;verticalAlign=top;spacingLeft=4;spacingRight=4;overflow=hidden;rotatable=0;points=[[0,0.5],[1,0.5]];portConstraint=eastwest;whiteSpace=wrap;html=1;" vertex="1" parent="sTUjuzvk16nlmPwMc_UP-1">
          <mxGeometry y="108" width="160" height="26" as="geometry" />
        </mxCell>
        <mxCell id="Ob5WgWB9ZAMDZSbnzhTH-1" value="InterfazAdministrador" style="swimlane;fontStyle=1;align=center;verticalAlign=top;childLayout=stackLayout;horizontal=1;startSize=26;horizontalStack=0;resizeParent=1;resizeParentMax=0;resizeLast=0;collapsible=1;marginBottom=0;whiteSpace=wrap;html=1;" vertex="1" collapsed="1" parent="1">
          <mxGeometry x="-40" y="320" width="170" height="30" as="geometry">
            <mxRectangle x="580" y="270" width="160" height="124" as="alternateBounds" />
          </mxGeometry>
        </mxCell>
        <mxCell id="Ob5WgWB9ZAMDZSbnzhTH-2" value="+ administrador:String&lt;br&gt;+ contraseña" style="text;strokeColor=none;fillColor=none;align=left;verticalAlign=top;spacingLeft=4;spacingRight=4;overflow=hidden;rotatable=0;points=[[0,0.5],[1,0.5]];portConstraint=eastwest;whiteSpace=wrap;html=1;" vertex="1" parent="Ob5WgWB9ZAMDZSbnzhTH-1">
          <mxGeometry y="26" width="160" height="64" as="geometry" />
        </mxCell>
        <mxCell id="Ob5WgWB9ZAMDZSbnzhTH-3" value="" style="line;strokeWidth=1;fillColor=none;align=left;verticalAlign=middle;spacingTop=-1;spacingLeft=3;spacingRight=3;rotatable=0;labelPosition=right;points=[];portConstraint=eastwest;strokeColor=inherit;" vertex="1" parent="Ob5WgWB9ZAMDZSbnzhTH-1">
          <mxGeometry y="90" width="160" height="8" as="geometry" />
        </mxCell>
        <mxCell id="Ob5WgWB9ZAMDZSbnzhTH-4" value="+ method(type): type" style="text;strokeColor=none;fillColor=none;align=left;verticalAlign=top;spacingLeft=4;spacingRight=4;overflow=hidden;rotatable=0;points=[[0,0.5],[1,0.5]];portConstraint=eastwest;whiteSpace=wrap;html=1;" vertex="1" parent="Ob5WgWB9ZAMDZSbnzhTH-1">
          <mxGeometry y="98" width="160" height="26" as="geometry" />
        </mxCell>
        <mxCell id="Ob5WgWB9ZAMDZSbnzhTH-5" value="GestionLibros" style="swimlane;fontStyle=1;align=center;verticalAlign=top;childLayout=stackLayout;horizontal=1;startSize=26;horizontalStack=0;resizeParent=1;resizeParentMax=0;resizeLast=0;collapsible=1;marginBottom=0;whiteSpace=wrap;html=1;" vertex="1" collapsed="1" parent="1">
          <mxGeometry x="590" y="60" width="120" height="30" as="geometry">
            <mxRectangle x="190" y="-20" width="160" height="164" as="alternateBounds" />
          </mxGeometry>
        </mxCell>
        <mxCell id="Ob5WgWB9ZAMDZSbnzhTH-6" value="-buscar:String&lt;br&gt;-multar:int&lt;br&gt;-prestarLibro:boolean&lt;br&gt;-devolverLibro:boolean&lt;div&gt;&lt;br/&gt;&lt;/div&gt;" style="text;strokeColor=none;fillColor=none;align=left;verticalAlign=top;spacingLeft=4;spacingRight=4;overflow=hidden;rotatable=0;points=[[0,0.5],[1,0.5]];portConstraint=eastwest;whiteSpace=wrap;html=1;" vertex="1" parent="Ob5WgWB9ZAMDZSbnzhTH-5">
          <mxGeometry y="26" width="160" height="104" as="geometry" />
        </mxCell>
        <mxCell id="Ob5WgWB9ZAMDZSbnzhTH-7" value="" style="line;strokeWidth=1;fillColor=none;align=left;verticalAlign=middle;spacingTop=-1;spacingLeft=3;spacingRight=3;rotatable=0;labelPosition=right;points=[];portConstraint=eastwest;strokeColor=inherit;" vertex="1" parent="Ob5WgWB9ZAMDZSbnzhTH-5">
          <mxGeometry y="130" width="160" height="8" as="geometry" />
        </mxCell>
        <mxCell id="Ob5WgWB9ZAMDZSbnzhTH-8" value="+ method(type): type" style="text;strokeColor=none;fillColor=none;align=left;verticalAlign=top;spacingLeft=4;spacingRight=4;overflow=hidden;rotatable=0;points=[[0,0.5],[1,0.5]];portConstraint=eastwest;whiteSpace=wrap;html=1;" vertex="1" parent="Ob5WgWB9ZAMDZSbnzhTH-5">
          <mxGeometry y="138" width="160" height="26" as="geometry" />
        </mxCell>
        <mxCell id="Ob5WgWB9ZAMDZSbnzhTH-9" value="GestionUsuarios" style="swimlane;fontStyle=1;align=center;verticalAlign=top;childLayout=stackLayout;horizontal=1;startSize=26;horizontalStack=0;resizeParent=1;resizeParentMax=0;resizeLast=0;collapsible=1;marginBottom=0;whiteSpace=wrap;html=1;" vertex="1" collapsed="1" parent="1">
          <mxGeometry x="120" y="430" width="140" height="30" as="geometry">
            <mxRectangle x="670" y="474" width="160" height="86" as="alternateBounds" />
          </mxGeometry>
        </mxCell>
        <mxCell id="Ob5WgWB9ZAMDZSbnzhTH-10" value="+ field: type" style="text;strokeColor=none;fillColor=none;align=left;verticalAlign=top;spacingLeft=4;spacingRight=4;overflow=hidden;rotatable=0;points=[[0,0.5],[1,0.5]];portConstraint=eastwest;whiteSpace=wrap;html=1;" vertex="1" parent="Ob5WgWB9ZAMDZSbnzhTH-9">
          <mxGeometry y="26" width="160" height="26" as="geometry" />
        </mxCell>
        <mxCell id="Ob5WgWB9ZAMDZSbnzhTH-11" value="" style="line;strokeWidth=1;fillColor=none;align=left;verticalAlign=middle;spacingTop=-1;spacingLeft=3;spacingRight=3;rotatable=0;labelPosition=right;points=[];portConstraint=eastwest;strokeColor=inherit;" vertex="1" parent="Ob5WgWB9ZAMDZSbnzhTH-9">
          <mxGeometry y="52" width="160" height="8" as="geometry" />
        </mxCell>
        <mxCell id="Ob5WgWB9ZAMDZSbnzhTH-12" value="+ method(type): type" style="text;strokeColor=none;fillColor=none;align=left;verticalAlign=top;spacingLeft=4;spacingRight=4;overflow=hidden;rotatable=0;points=[[0,0.5],[1,0.5]];portConstraint=eastwest;whiteSpace=wrap;html=1;" vertex="1" parent="Ob5WgWB9ZAMDZSbnzhTH-9">
          <mxGeometry y="60" width="160" height="26" as="geometry" />
        </mxCell>
        <mxCell id="Ob5WgWB9ZAMDZSbnzhTH-13" value="NotasLibros" style="swimlane;fontStyle=1;align=center;verticalAlign=top;childLayout=stackLayout;horizontal=1;startSize=26;horizontalStack=0;resizeParent=1;resizeParentMax=0;resizeLast=0;collapsible=1;marginBottom=0;whiteSpace=wrap;html=1;" vertex="1" collapsed="1" parent="1">
          <mxGeometry x="610" y="200" width="110" height="30" as="geometry">
            <mxRectangle x="310" y="440" width="160" height="86" as="alternateBounds" />
          </mxGeometry>
        </mxCell>
        <mxCell id="Ob5WgWB9ZAMDZSbnzhTH-14" value="- notificaciones:String" style="text;strokeColor=none;fillColor=none;align=left;verticalAlign=top;spacingLeft=4;spacingRight=4;overflow=hidden;rotatable=0;points=[[0,0.5],[1,0.5]];portConstraint=eastwest;whiteSpace=wrap;html=1;" vertex="1" parent="Ob5WgWB9ZAMDZSbnzhTH-13">
          <mxGeometry y="26" width="160" height="26" as="geometry" />
        </mxCell>
        <mxCell id="Ob5WgWB9ZAMDZSbnzhTH-15" value="" style="line;strokeWidth=1;fillColor=none;align=left;verticalAlign=middle;spacingTop=-1;spacingLeft=3;spacingRight=3;rotatable=0;labelPosition=right;points=[];portConstraint=eastwest;strokeColor=inherit;" vertex="1" parent="Ob5WgWB9ZAMDZSbnzhTH-13">
          <mxGeometry y="52" width="160" height="8" as="geometry" />
        </mxCell>
        <mxCell id="Ob5WgWB9ZAMDZSbnzhTH-16" value="+ method(type): type" style="text;strokeColor=none;fillColor=none;align=left;verticalAlign=top;spacingLeft=4;spacingRight=4;overflow=hidden;rotatable=0;points=[[0,0.5],[1,0.5]];portConstraint=eastwest;whiteSpace=wrap;html=1;" vertex="1" parent="Ob5WgWB9ZAMDZSbnzhTH-13">
          <mxGeometry y="60" width="160" height="26" as="geometry" />
        </mxCell>
        <mxCell id="Ob5WgWB9ZAMDZSbnzhTH-17" value="registroUsuario" style="swimlane;fontStyle=1;align=center;verticalAlign=top;childLayout=stackLayout;horizontal=1;startSize=26;horizontalStack=0;resizeParent=1;resizeParentMax=0;resizeLast=0;collapsible=1;marginBottom=0;whiteSpace=wrap;html=1;" vertex="1" collapsed="1" parent="1">
          <mxGeometry x="650" y="400" width="130" height="30" as="geometry">
            <mxRectangle x="40" y="450" width="160" height="134" as="alternateBounds" />
          </mxGeometry>
        </mxCell>
        <mxCell id="Ob5WgWB9ZAMDZSbnzhTH-18" value="- nombreUsuario:String&lt;div style=&quot;border-color: var(--border-color);&quot;&gt;- apellidoUsuario:String&lt;br style=&quot;border-color: var(--border-color);&quot;&gt;- telefono:int&lt;br style=&quot;border-color: var(--border-color);&quot;&gt;-direccion:String&lt;/div&gt;" style="text;strokeColor=none;fillColor=none;align=left;verticalAlign=top;spacingLeft=4;spacingRight=4;overflow=hidden;rotatable=0;points=[[0,0.5],[1,0.5]];portConstraint=eastwest;whiteSpace=wrap;html=1;" vertex="1" parent="Ob5WgWB9ZAMDZSbnzhTH-17">
          <mxGeometry y="26" width="160" height="74" as="geometry" />
        </mxCell>
        <mxCell id="Ob5WgWB9ZAMDZSbnzhTH-19" value="" style="line;strokeWidth=1;fillColor=none;align=left;verticalAlign=middle;spacingTop=-1;spacingLeft=3;spacingRight=3;rotatable=0;labelPosition=right;points=[];portConstraint=eastwest;strokeColor=inherit;" vertex="1" parent="Ob5WgWB9ZAMDZSbnzhTH-17">
          <mxGeometry y="100" width="160" height="8" as="geometry" />
        </mxCell>
        <mxCell id="Ob5WgWB9ZAMDZSbnzhTH-20" value="+ method(type): type" style="text;strokeColor=none;fillColor=none;align=left;verticalAlign=top;spacingLeft=4;spacingRight=4;overflow=hidden;rotatable=0;points=[[0,0.5],[1,0.5]];portConstraint=eastwest;whiteSpace=wrap;html=1;" vertex="1" parent="Ob5WgWB9ZAMDZSbnzhTH-17">
          <mxGeometry y="108" width="160" height="26" as="geometry" />
        </mxCell>
        <mxCell id="Ob5WgWB9ZAMDZSbnzhTH-21" value="registroLibros" style="swimlane;fontStyle=1;align=center;verticalAlign=top;childLayout=stackLayout;horizontal=1;startSize=26;horizontalStack=0;resizeParent=1;resizeParentMax=0;resizeLast=0;collapsible=1;marginBottom=0;whiteSpace=wrap;html=1;" vertex="1" collapsed="1" parent="1">
          <mxGeometry x="364" y="100" width="120" height="30" as="geometry">
            <mxRectangle x="510" y="585" width="160" height="164" as="alternateBounds" />
          </mxGeometry>
        </mxCell>
        <mxCell id="Ob5WgWB9ZAMDZSbnzhTH-22" value="- isbn:String&lt;div&gt;- tituloLibro:String&lt;br&gt;- autor:String&lt;br&gt;-añoDePublicacion:Int&lt;br&gt;-editorial:String&lt;br&gt;-cantidadDisponible:int&lt;/div&gt;" style="text;strokeColor=none;fillColor=none;align=left;verticalAlign=top;spacingLeft=4;spacingRight=4;overflow=hidden;rotatable=0;points=[[0,0.5],[1,0.5]];portConstraint=eastwest;whiteSpace=wrap;html=1;" vertex="1" parent="Ob5WgWB9ZAMDZSbnzhTH-21">
          <mxGeometry y="26" width="160" height="104" as="geometry" />
        </mxCell>
        <mxCell id="Ob5WgWB9ZAMDZSbnzhTH-23" value="" style="line;strokeWidth=1;fillColor=none;align=left;verticalAlign=middle;spacingTop=-1;spacingLeft=3;spacingRight=3;rotatable=0;labelPosition=right;points=[];portConstraint=eastwest;strokeColor=inherit;" vertex="1" parent="Ob5WgWB9ZAMDZSbnzhTH-21">
          <mxGeometry y="130" width="160" height="8" as="geometry" />
        </mxCell>
        <mxCell id="Ob5WgWB9ZAMDZSbnzhTH-24" value="+ method(type): type" style="text;strokeColor=none;fillColor=none;align=left;verticalAlign=top;spacingLeft=4;spacingRight=4;overflow=hidden;rotatable=0;points=[[0,0.5],[1,0.5]];portConstraint=eastwest;whiteSpace=wrap;html=1;" vertex="1" parent="Ob5WgWB9ZAMDZSbnzhTH-21">
          <mxGeometry y="138" width="160" height="26" as="geometry" />
        </mxCell>
        <mxCell id="Ob5WgWB9ZAMDZSbnzhTH-25" value="" style="endArrow=diamondThin;endFill=1;endSize=24;html=1;rounded=0;exitX=1;exitY=0.5;exitDx=0;exitDy=0;entryX=0.5;entryY=0;entryDx=0;entryDy=0;" edge="1" parent="1" source="lxLX9aIqkDxmS6mn9qYT-12" target="lxLX9aIqkDxmS6mn9qYT-8">
          <mxGeometry width="160" relative="1" as="geometry">
            <mxPoint x="267.63" y="209" as="sourcePoint" />
            <mxPoint x="460" y="200" as="targetPoint" />
            <Array as="points" />
          </mxGeometry>
        </mxCell>
        <mxCell id="Ob5WgWB9ZAMDZSbnzhTH-28" value="" style="endArrow=diamondThin;endFill=1;endSize=24;html=1;rounded=0;entryX=0.5;entryY=1;entryDx=0;entryDy=0;exitX=0.5;exitY=0;exitDx=0;exitDy=0;" edge="1" parent="1" source="56RZsFW8a9L61xyw1J4C-1" target="lxLX9aIqkDxmS6mn9qYT-8">
          <mxGeometry width="160" relative="1" as="geometry">
            <mxPoint x="500" y="380" as="sourcePoint" />
            <mxPoint x="412" y="481" as="targetPoint" />
          </mxGeometry>
        </mxCell>
        <mxCell id="Ob5WgWB9ZAMDZSbnzhTH-32" value="" style="endArrow=diamondThin;endFill=0;endSize=24;html=1;rounded=0;exitX=0.5;exitY=1;exitDx=0;exitDy=0;entryX=0.5;entryY=0;entryDx=0;entryDy=0;" edge="1" parent="1" source="lxLX9aIqkDxmS6mn9qYT-12" target="Ob5WgWB9ZAMDZSbnzhTH-1">
          <mxGeometry width="160" relative="1" as="geometry">
            <mxPoint x="70" y="250" as="sourcePoint" />
            <mxPoint x="230" y="250" as="targetPoint" />
            <Array as="points">
              <mxPoint x="120" y="240" />
              <mxPoint x="40" y="240" />
            </Array>
          </mxGeometry>
        </mxCell>
        <mxCell id="Ob5WgWB9ZAMDZSbnzhTH-33" value="" style="endArrow=diamondThin;endFill=0;endSize=24;html=1;rounded=0;exitX=1;exitY=0.5;exitDx=0;exitDy=0;entryX=0;entryY=0.75;entryDx=0;entryDy=0;" edge="1" parent="1" source="56RZsFW8a9L61xyw1J4C-1" target="sTUjuzvk16nlmPwMc_UP-1">
          <mxGeometry width="160" relative="1" as="geometry">
            <mxPoint x="450" y="584" as="sourcePoint" />
            <mxPoint x="610" y="584" as="targetPoint" />
          </mxGeometry>
        </mxCell>
        <mxCell id="Ob5WgWB9ZAMDZSbnzhTH-36" value="" style="endArrow=diamondThin;endFill=0;endSize=24;html=1;rounded=0;exitX=1;exitY=0.5;exitDx=0;exitDy=0;entryX=0;entryY=0.5;entryDx=0;entryDy=0;" edge="1" parent="1" source="Ob5WgWB9ZAMDZSbnzhTH-21" target="Ob5WgWB9ZAMDZSbnzhTH-13">
          <mxGeometry width="160" relative="1" as="geometry">
            <mxPoint x="464" y="140" as="sourcePoint" />
            <mxPoint x="624" y="140" as="targetPoint" />
          </mxGeometry>
        </mxCell>
        <mxCell id="Ob5WgWB9ZAMDZSbnzhTH-40" value="" style="endArrow=none;html=1;edgeStyle=orthogonalEdgeStyle;rounded=0;entryX=0.5;entryY=0;entryDx=0;entryDy=0;exitX=0.75;exitY=1;exitDx=0;exitDy=0;" edge="1" parent="1" source="lxLX9aIqkDxmS6mn9qYT-12" target="Ob5WgWB9ZAMDZSbnzhTH-9">
          <mxGeometry relative="1" as="geometry">
            <mxPoint x="270" y="340" as="sourcePoint" />
            <mxPoint x="500" y="260" as="targetPoint" />
          </mxGeometry>
        </mxCell>
        <mxCell id="Ob5WgWB9ZAMDZSbnzhTH-41" value="parent" style="edgeLabel;resizable=0;html=1;align=left;verticalAlign=bottom;" connectable="0" vertex="1" parent="Ob5WgWB9ZAMDZSbnzhTH-40">
          <mxGeometry x="-1" relative="1" as="geometry" />
        </mxCell>
        <mxCell id="Ob5WgWB9ZAMDZSbnzhTH-42" value="child" style="edgeLabel;resizable=0;html=1;align=right;verticalAlign=bottom;" connectable="0" vertex="1" parent="Ob5WgWB9ZAMDZSbnzhTH-40">
          <mxGeometry x="1" relative="1" as="geometry" />
        </mxCell>
        <mxCell id="Ob5WgWB9ZAMDZSbnzhTH-43" value="" style="endArrow=none;html=1;edgeStyle=orthogonalEdgeStyle;rounded=0;exitX=0.5;exitY=0;exitDx=0;exitDy=0;entryX=0.5;entryY=0;entryDx=0;entryDy=0;" edge="1" parent="1" source="lxLX9aIqkDxmS6mn9qYT-12" target="Ob5WgWB9ZAMDZSbnzhTH-21">
          <mxGeometry relative="1" as="geometry">
            <mxPoint x="160" y="60" as="sourcePoint" />
            <mxPoint x="320" y="60" as="targetPoint" />
          </mxGeometry>
        </mxCell>
        <mxCell id="Ob5WgWB9ZAMDZSbnzhTH-44" value="parent" style="edgeLabel;resizable=0;html=1;align=left;verticalAlign=bottom;" connectable="0" vertex="1" parent="Ob5WgWB9ZAMDZSbnzhTH-43">
          <mxGeometry x="-1" relative="1" as="geometry" />
        </mxCell>
        <mxCell id="Ob5WgWB9ZAMDZSbnzhTH-45" value="child" style="edgeLabel;resizable=0;html=1;align=right;verticalAlign=bottom;" connectable="0" vertex="1" parent="Ob5WgWB9ZAMDZSbnzhTH-43">
          <mxGeometry x="1" relative="1" as="geometry" />
        </mxCell>
        <mxCell id="Ob5WgWB9ZAMDZSbnzhTH-47" value="" style="endArrow=diamondThin;endFill=1;endSize=24;html=1;rounded=0;exitX=0.5;exitY=1;exitDx=0;exitDy=0;entryX=0.5;entryY=0;entryDx=0;entryDy=0;" edge="1" parent="1" source="Ob5WgWB9ZAMDZSbnzhTH-21" target="lxLX9aIqkDxmS6mn9qYT-8">
          <mxGeometry width="160" relative="1" as="geometry">
            <mxPoint x="344" y="174.5" as="sourcePoint" />
            <mxPoint x="504" y="174.5" as="targetPoint" />
          </mxGeometry>
        </mxCell>
        <mxCell id="Ob5WgWB9ZAMDZSbnzhTH-48" value="" style="endArrow=none;html=1;edgeStyle=orthogonalEdgeStyle;rounded=0;exitX=1;exitY=0.25;exitDx=0;exitDy=0;entryX=0;entryY=0.5;entryDx=0;entryDy=0;" edge="1" parent="1" source="56RZsFW8a9L61xyw1J4C-1" target="Ob5WgWB9ZAMDZSbnzhTH-17">
          <mxGeometry relative="1" as="geometry">
            <mxPoint x="440" y="410" as="sourcePoint" />
            <mxPoint x="600" y="410" as="targetPoint" />
          </mxGeometry>
        </mxCell>
        <mxCell id="Ob5WgWB9ZAMDZSbnzhTH-49" value="parent" style="edgeLabel;resizable=0;html=1;align=left;verticalAlign=bottom;" connectable="0" vertex="1" parent="Ob5WgWB9ZAMDZSbnzhTH-48">
          <mxGeometry x="-1" relative="1" as="geometry" />
        </mxCell>
        <mxCell id="Ob5WgWB9ZAMDZSbnzhTH-50" value="child" style="edgeLabel;resizable=0;html=1;align=right;verticalAlign=bottom;" connectable="0" vertex="1" parent="Ob5WgWB9ZAMDZSbnzhTH-48">
          <mxGeometry x="1" relative="1" as="geometry" />
        </mxCell>
        <mxCell id="Ob5WgWB9ZAMDZSbnzhTH-52" value="" style="endArrow=diamondThin;endFill=0;endSize=24;html=1;rounded=0;exitX=1;exitY=0.5;exitDx=0;exitDy=0;entryX=1;entryY=0.5;entryDx=0;entryDy=0;" edge="1" parent="1" source="Ob5WgWB9ZAMDZSbnzhTH-5" target="sTUjuzvk16nlmPwMc_UP-1">
          <mxGeometry width="160" relative="1" as="geometry">
            <mxPoint x="700" y="214.5" as="sourcePoint" />
            <mxPoint x="860" y="214.5" as="targetPoint" />
            <Array as="points">
              <mxPoint x="810" y="310" />
              <mxPoint x="810" y="560" />
            </Array>
          </mxGeometry>
        </mxCell>
        <mxCell id="Ob5WgWB9ZAMDZSbnzhTH-53" value="" style="endArrow=none;html=1;edgeStyle=orthogonalEdgeStyle;rounded=0;exitX=1;exitY=0.5;exitDx=0;exitDy=0;entryX=0;entryY=0.5;entryDx=0;entryDy=0;" edge="1" parent="1" source="Ob5WgWB9ZAMDZSbnzhTH-21" target="Ob5WgWB9ZAMDZSbnzhTH-5">
          <mxGeometry relative="1" as="geometry">
            <mxPoint x="340" y="360" as="sourcePoint" />
            <mxPoint x="500" y="360" as="targetPoint" />
          </mxGeometry>
        </mxCell>
        <mxCell id="Ob5WgWB9ZAMDZSbnzhTH-54" value="parent" style="edgeLabel;resizable=0;html=1;align=left;verticalAlign=bottom;" connectable="0" vertex="1" parent="Ob5WgWB9ZAMDZSbnzhTH-53">
          <mxGeometry x="-1" relative="1" as="geometry" />
        </mxCell>
        <mxCell id="Ob5WgWB9ZAMDZSbnzhTH-55" value="child" style="edgeLabel;resizable=0;html=1;align=right;verticalAlign=bottom;" connectable="0" vertex="1" parent="Ob5WgWB9ZAMDZSbnzhTH-53">
          <mxGeometry x="1" relative="1" as="geometry" />
        </mxCell>
        <mxCell id="Ob5WgWB9ZAMDZSbnzhTH-56" value="" style="endArrow=diamondThin;endFill=0;endSize=24;html=1;rounded=0;exitX=0.5;exitY=1;exitDx=0;exitDy=0;entryX=0;entryY=0.5;entryDx=0;entryDy=0;" edge="1" parent="1" source="Ob5WgWB9ZAMDZSbnzhTH-9" target="56RZsFW8a9L61xyw1J4C-1">
          <mxGeometry width="160" relative="1" as="geometry">
            <mxPoint x="150" y="560" as="sourcePoint" />
            <mxPoint x="310" y="560" as="targetPoint" />
            <Array as="points">
              <mxPoint x="170" y="500" />
            </Array>
          </mxGeometry>
        </mxCell>
        <mxCell id="Ob5WgWB9ZAMDZSbnzhTH-57" value="" style="endArrow=none;html=1;edgeStyle=orthogonalEdgeStyle;rounded=0;exitX=0.5;exitY=1;exitDx=0;exitDy=0;entryX=0;entryY=0.5;entryDx=0;entryDy=0;" edge="1" parent="1" source="Ob5WgWB9ZAMDZSbnzhTH-1" target="Ob5WgWB9ZAMDZSbnzhTH-9">
          <mxGeometry relative="1" as="geometry">
            <mxPoint x="340" y="360" as="sourcePoint" />
            <mxPoint x="500" y="360" as="targetPoint" />
            <Array as="points">
              <mxPoint x="45" y="360" />
              <mxPoint x="100" y="360" />
            </Array>
          </mxGeometry>
        </mxCell>
        <mxCell id="Ob5WgWB9ZAMDZSbnzhTH-58" value="parent" style="edgeLabel;resizable=0;html=1;align=left;verticalAlign=bottom;" connectable="0" vertex="1" parent="Ob5WgWB9ZAMDZSbnzhTH-57">
          <mxGeometry x="-1" relative="1" as="geometry" />
        </mxCell>
        <mxCell id="Ob5WgWB9ZAMDZSbnzhTH-59" value="child" style="edgeLabel;resizable=0;html=1;align=right;verticalAlign=bottom;" connectable="0" vertex="1" parent="Ob5WgWB9ZAMDZSbnzhTH-57">
          <mxGeometry x="1" relative="1" as="geometry" />
        </mxCell>
      </root>
    </mxGraphModel>
  </diagram>
</mxfile>
